solid cylinder
  facet normal 0.997859 0.0654031 0
    outer loop
      vertex 0.5 0 -0.6
      vertex 0.495722 0.0652631 -0.6
      vertex 0.495722 0.0652631 0.6
    endloop
  endfacet
  facet normal 0.997859 0.0654031 -0
    outer loop
      vertex 0.5 0 -0.6
      vertex 0.495722 0.0652631 0.6
      vertex 0.5 0 0.6
    endloop
  endfacet
  facet normal 0 0 1
    outer loop
      vertex 0 0 0.6
      vertex 0.5 0 0.6
      vertex 0.495722 0.0652631 0.6
    endloop
  endfacet
  facet normal 0 0 -1
    outer loop
      vertex 0 0 -0.6
      vertex 0.495722 0.0652631 -0.6
      vertex 0.5 0 -0.6
    endloop
  endfacet
  facet normal 0.980785 0.19509 0
    outer loop
      vertex 0.495722 0.0652631 -0.6
      vertex 0.482963 0.12941 -0.6
      vertex 0.482963 0.12941 0.6
    endloop
  endfacet
  facet normal 0.980785 0.19509 -0
    outer loop
      vertex 0.495722 0.0652631 -0.6
      vertex 0.482963 0.12941 0.6
      vertex 0.495722 0.0652631 0.6
    endloop
  endfacet
  facet normal 0 0 1
    outer loop
      vertex 0 0 0.6
      vertex 0.495722 0.0652631 0.6
      vertex 0.482963 0.12941 0.6
    endloop
  endfacet
  facet normal 0 0 -1
    outer loop
      vertex 0 0 -0.6
      vertex 0.482963 0.12941 -0.6
      vertex 0.495722 0.0652631 -0.6
    endloop
  endfacet
  facet normal 0.94693 0.321439 0
    outer loop
      vertex 0.482963 0.12941 -0.6
      vertex 0.46194 0.191342 -0.6
      vertex 0.46194 0.191342 0.6
    endloop
  endfacet
  facet normal 0.94693 0.321439 -0
    outer loop
      vertex 0.482963 0.12941 -0.6
      vertex 0.46194 0.191342 0.6
      vertex 0.482963 0.12941 0.6
    endloop
  endfacet
  facet normal 0 0 1
    outer loop
      vertex 0 0 0.6
      vertex 0.482963 0.12941 0.6
      vertex 0.46194 0.191342 0.6
    endloop
  endfacet
  facet normal 0 0 -1
    outer loop
      vertex 0 0 -0.6
      vertex 0.46194 0.191342 -0.6
      vertex 0.482963 0.12941 -0.6
    endloop
  endfacet
  facet normal 0.896873 0.442289 0
    outer loop
      vertex 0.46194 0.191342 -0.6
      vertex 0.433013 0.25 -0.6
      vertex 0.433013 0.25 0.6
    endloop
  endfacet
  facet normal 0.896873 0.442289 -0
    outer loop
      vertex 0.46194 0.191342 -0.6
      vertex 0.433013 0.25 0.6
      vertex 0.46194 0.191342 0.6
    endloop
  endfacet
  facet normal 0 0 1
    outer loop
      vertex 0 0 0.6
      vertex 0.46194 0.191342 0.6
      vertex 0.433013 0.25 0.6
    endloop
  endfacet
  facet normal 0 0 -1
    outer loop
      vertex 0 0 -0.6
      vertex 0.433013 0.25 -0.6
      vertex 0.46194 0.191342 -0.6
    endloop
  endfacet
  facet normal 0.83147 0.55557 0
    outer loop
      vertex 0.433013 0.25 -0.6
      vertex 0.396677 0.304381 -0.6
      vertex 0.396677 0.304381 0.6
    endloop
  endfacet
  facet normal 0.83147 0.55557 -0
    outer loop
      vertex 0.433013 0.25 -0.6
      vertex 0.396677 0.304381 0.6
      vertex 0.433013 0.25 0.6
    endloop
  endfacet
  facet normal 0 0 1
    outer loop
      vertex 0 0 0.6
      vertex 0.433013 0.25 0.6
      vertex 0.396677 0.304381 0.6
    endloop
  endfacet
  facet normal 0 0 -1
    outer loop
      vertex 0 0 -0.6
      vertex 0.396677 0.304381 -0.6
      vertex 0.433013 0.25 -0.6
    endloop
  endfacet
  facet normal 0.75184 0.659346 0
    outer loop
      vertex 0.396677 0.304381 -0.6
      vertex 0.353553 0.353553 -0.6
      vertex 0.353553 0.353553 0.6
    endloop
  endfacet
  facet normal 0.75184 0.659346 -0
    outer loop
      vertex 0.396677 0.304381 -0.6
      vertex 0.353553 0.353553 0.6
      vertex 0.396677 0.304381 0.6
    endloop
  endfacet
  facet normal 0 0 1
    outer loop
      vertex 0 0 0.6
      vertex 0.396677 0.304381 0.6
      vertex 0.353553 0.353553 0.6
    endloop
  endfacet
  facet normal 0 0 -1
    outer loop
      vertex 0 0 -0.6
      vertex 0.353553 0.353553 -0.6
      vertex 0.396677 0.304381 -0.6
    endloop
  endfacet
  facet normal 0.659346 0.75184 0
    outer loop
      vertex 0.353553 0.353553 -0.6
      vertex 0.304381 0.396677 -0.6
      vertex 0.304381 0.396677 0.6
    endloop
  endfacet
  facet normal 0.659346 0.75184 -0
    outer loop
      vertex 0.353553 0.353553 -0.6
      vertex 0.304381 0.396677 0.6
      vertex 0.353553 0.353553 0.6
    endloop
  endfacet
  facet normal 0 0 1
    outer loop
      vertex 0 0 0.6
      vertex 0.353553 0.353553 0.6
      vertex 0.304381 0.396677 0.6
    endloop
  endfacet
  facet normal 0 0 -1
    outer loop
      vertex 0 0 -0.6
      vertex 0.304381 0.396677 -0.6
      vertex 0.353553 0.353553 -0.6
    endloop
  endfacet
  facet normal 0.55557 0.83147 0
    outer loop
      vertex 0.304381 0.396677 -0.6
      vertex 0.25 0.433013 -0.6
      vertex 0.25 0.433013 0.6
    endloop
  endfacet
  facet normal 0.55557 0.83147 -0
    outer loop
      vertex 0.304381 0.396677 -0.6
      vertex 0.25 0.433013 0.6
      vertex 0.304381 0.396677 0.6
    endloop
  endfacet
  facet normal 0 0 1
    outer loop
      vertex 0 0 0.6
      vertex 0.304381 0.396677 0.6
      vertex 0.25 0.433013 0.6
    endloop
  endfacet
  facet normal 0 0 -1
    outer loop
      vertex 0 0 -0.6
      vertex 0.25 0.433013 -0.6
      vertex 0.304381 0.396677 -0.6
    endloop
  endfacet
  facet normal 0.442289 0.896873 0
    outer loop
      vertex 0.25 0.433013 -0.6
      vertex 0.191342 0.46194 -0.6
      vertex 0.191342 0.46194 0.6
    endloop
  endfacet
  facet normal 0.442289 0.896873 -0
    outer loop
      vertex 0.25 0.433013 -0.6
      vertex 0.191342 0.46194 0.6
      vertex 0.25 0.433013 0.6
    endloop
  endfacet
  facet normal 0 0 1
    outer loop
      vertex 0 0 0.6
      vertex 0.25 0.433013 0.6
      vertex 0.191342 0.46194 0.6
    endloop
  endfacet
  facet normal 0 0 -1
    outer loop
      vertex 0 0 -0.6
      vertex 0.191342 0.46194 -0.6
      vertex 0.25 0.433013 -0.6
    endloop
  endfacet
  facet normal 0.321439 0.94693 0
    outer loop
      vertex 0.191342 0.46194 -0.6
      vertex 0.12941 0.482963 -0.6
      vertex 0.12941 0.482963 0.6
    endloop
  endfacet
  facet normal 0.321439 0.94693 -0
    outer loop
      vertex 0.191342 0.46194 -0.6
      vertex 0.12941 0.482963 0.6
      vertex 0.191342 0.46194 0.6
    endloop
  endfacet
  facet normal 0 0 1
    outer loop
      vertex 0 0 0.6
      vertex 0.191342 0.46194 0.6
      vertex 0.12941 0.482963 0.6
    endloop
  endfacet
  facet normal 0 0 -1
    outer loop
      vertex 0 0 -0.6
      vertex 0.12941 0.482963 -0.6
      vertex 0.191342 0.46194 -0.6
    endloop
  endfacet
  facet normal 0.19509 0.980785 0
    outer loop
      vertex 0.12941 0.482963 -0.6
      vertex 0.0652631 0.495722 -0.6
      vertex 0.0652631 0.495722 0.6
    endloop
  endfacet
  facet normal 0.19509 0.980785 -0
    outer loop
      vertex 0.12941 0.482963 -0.6
      vertex 0.0652631 0.495722 0.6
      vertex 0.12941 0.482963 0.6
    endloop
  endfacet
  facet normal 0 0 1
    outer loop
      vertex 0 0 0.6
      vertex 0.12941 0.482963 0.6
      vertex 0.0652631 0.495722 0.6
    endloop
  endfacet
  facet normal 0 0 -1
    outer loop
      vertex 0 0 -0.6
      vertex 0.0652631 0.495722 -0.6
      vertex 0.12941 0.482963 -0.6
    endloop
  endfacet
  facet normal 0.0654031 0.997859 0
    outer loop
      vertex 0.0652631 0.495722 -0.6
      vertex 3.06162e-17 0.5 -0.6
      vertex 3.06162e-17 0.5 0.6
    endloop
  endfacet
  facet normal 0.0654031 0.997859 -0
    outer loop
      vertex 0.0652631 0.495722 -0.6
      vertex 3.06162e-17 0.5 0.6
      vertex 0.0652631 0.495722 0.6
    endloop
  endfacet
  facet normal 0 0 1
    outer loop
      vertex 0 0 0.6
      vertex 0.0652631 0.495722 0.6
      vertex 3.06162e-17 0.5 0.6
    endloop
  endfacet
  facet normal 0 0 -1
    outer loop
      vertex 0 0 -0.6
      vertex 3.06162e-17 0.5 -0.6
      vertex 0.0652631 0.495722 -0.6
    endloop
  endfacet
  facet normal -0.0654031 0.997859 0
    outer loop
      vertex 3.06162e-17 0.5 -0.6
      vertex -0.0652631 0.495722 -0.6
      vertex -0.0652631 0.495722 0.6
    endloop
  endfacet
  facet normal -0.0654031 0.997859 0
    outer loop
      vertex 3.06162e-17 0.5 -0.6
      vertex -0.0652631 0.495722 0.6
      vertex 3.06162e-17 0.5 0.6
    endloop
  endfacet
  facet normal 0 -0 1
    outer loop
      vertex 0 0 0.6
      vertex 3.06162e-17 0.5 0.6
      vertex -0.0652631 0.495722 0.6
    endloop
  endfacet
  facet normal 0 0 -1
    outer loop
      vertex 0 0 -0.6
      vertex -0.0652631 0.495722 -0.6
      vertex 3.06162e-17 0.5 -0.6
    endloop
  endfacet
  facet normal -0.19509 0.980785 0
    outer loop
      vertex -0.0652631 0.495722 -0.6
      vertex -0.12941 0.482963 -0.6
      vertex -0.12941 0.482963 0.6
    endloop
  endfacet
  facet normal -0.19509 0.980785 0
    outer loop
      vertex -0.0652631 0.495722 -0.6
      vertex -0.12941 0.482963 0.6
      vertex -0.0652631 0.495722 0.6
    endloop
  endfacet
  facet normal 0 0 1
    outer loop
      vertex 0 0 0.6
      vertex -0.0652631 0.495722 0.6
      vertex -0.12941 0.482963 0.6
    endloop
  endfacet
  facet normal 0 0 -1
    outer loop
      vertex 0 0 -0.6
      vertex -0.12941 0.482963 -0.6
      vertex -0.0652631 0.495722 -0.6
    endloop
  endfacet
  facet normal -0.321439 0.94693 0
    outer loop
      vertex -0.12941 0.482963 -0.6
      vertex -0.191342 0.46194 -0.6
      vertex -0.191342 0.46194 0.6
    endloop
  endfacet
  facet normal -0.321439 0.94693 0
    outer loop
      vertex -0.12941 0.482963 -0.6
      vertex -0.191342 0.46194 0.6
      vertex -0.12941 0.482963 0.6
    endloop
  endfacet
  facet normal 0 0 1
    outer loop
      vertex 0 0 0.6
      vertex -0.12941 0.482963 0.6
      vertex -0.191342 0.46194 0.6
    endloop
  endfacet
  facet normal 0 0 -1
    outer loop
      vertex 0 0 -0.6
      vertex -0.191342 0.46194 -0.6
      vertex -0.12941 0.482963 -0.6
    endloop
  endfacet
  facet normal -0.442289 0.896873 0
    outer loop
      vertex -0.191342 0.46194 -0.6
      vertex -0.25 0.433013 -0.6
      vertex -0.25 0.433013 0.6
    endloop
  endfacet
  facet normal -0.442289 0.896873 0
    outer loop
      vertex -0.191342 0.46194 -0.6
      vertex -0.25 0.433013 0.6
      vertex -0.191342 0.46194 0.6
    endloop
  endfacet
  facet normal 0 0 1
    outer loop
      vertex 0 0 0.6
      vertex -0.191342 0.46194 0.6
      vertex -0.25 0.433013 0.6
    endloop
  endfacet
  facet normal 0 0 -1
    outer loop
      vertex 0 0 -0.6
      vertex -0.25 0.433013 -0.6
      vertex -0.191342 0.46194 -0.6
    endloop
  endfacet
  facet normal -0.55557 0.83147 0
    outer loop
      vertex -0.25 0.433013 -0.6
      vertex -0.304381 0.396677 -0.6
      vertex -0.304381 0.396677 0.6
    endloop
  endfacet
  facet normal -0.55557 0.83147 0
    outer loop
      vertex -0.25 0.433013 -0.6
      vertex -0.304381 0.396677 0.6
      vertex -0.25 0.433013 0.6
    endloop
  endfacet
  facet normal 0 0 1
    outer loop
      vertex 0 0 0.6
      vertex -0.25 0.433013 0.6
      vertex -0.304381 0.396677 0.6
    endloop
  endfacet
  facet normal 0 0 -1
    outer loop
      vertex 0 0 -0.6
      vertex -0.304381 0.396677 -0.6
      vertex -0.25 0.433013 -0.6
    endloop
  endfacet
  facet normal -0.659346 0.75184 0
    outer loop
      vertex -0.304381 0.396677 -0.6
      vertex -0.353553 0.353553 -0.6
      vertex -0.353553 0.353553 0.6
    endloop
  endfacet
  facet normal -0.659346 0.75184 0
    outer loop
      vertex -0.304381 0.396677 -0.6
      vertex -0.353553 0.353553 0.6
      vertex -0.304381 0.396677 0.6
    endloop
  endfacet
  facet normal 0 0 1
    outer loop
      vertex 0 0 0.6
      vertex -0.304381 0.396677 0.6
      vertex -0.353553 0.353553 0.6
    endloop
  endfacet
  facet normal 0 0 -1
    outer loop
      vertex 0 0 -0.6
      vertex -0.353553 0.353553 -0.6
      vertex -0.304381 0.396677 -0.6
    endloop
  endfacet
  facet normal -0.75184 0.659346 0
    outer loop
      vertex -0.353553 0.353553 -0.6
      vertex -0.396677 0.304381 -0.6
      vertex -0.396677 0.304381 0.6
    endloop
  endfacet
  facet normal -0.75184 0.659346 0
    outer loop
      vertex -0.353553 0.353553 -0.6
      vertex -0.396677 0.304381 0.6
      vertex -0.353553 0.353553 0.6
    endloop
  endfacet
  facet normal 0 0 1
    outer loop
      vertex 0 0 0.6
      vertex -0.353553 0.353553 0.6
      vertex -0.396677 0.304381 0.6
    endloop
  endfacet
  facet normal 0 0 -1
    outer loop
      vertex 0 0 -0.6
      vertex -0.396677 0.304381 -0.6
      vertex -0.353553 0.353553 -0.6
    endloop
  endfacet
  facet normal -0.83147 0.55557 0
    outer loop
      vertex -0.396677 0.304381 -0.6
      vertex -0.433013 0.25 -0.6
      vertex -0.433013 0.25 0.6
    endloop
  endfacet
  facet normal -0.83147 0.55557 0
    outer loop
      vertex -0.396677 0.304381 -0.6
      vertex -0.433013 0.25 0.6
      vertex -0.396677 0.304381 0.6
    endloop
  endfacet
  facet normal 0 0 1
    outer loop
      vertex 0 0 0.6
      vertex -0.396677 0.304381 0.6
      vertex -0.433013 0.25 0.6
    endloop
  endfacet
  facet normal 0 0 -1
    outer loop
      vertex 0 0 -0.6
      vertex -0.433013 0.25 -0.6
      vertex -0.396677 0.304381 -0.6
    endloop
  endfacet
  facet normal -0.896873 0.442289 0
    outer loop
      vertex -0.433013 0.25 -0.6
      vertex -0.46194 0.191342 -0.6
      vertex -0.46194 0.191342 0.6
    endloop
  endfacet
  facet normal -0.896873 0.442289 0
    outer loop
      vertex -0.433013 0.25 -0.6
      vertex -0.46194 0.191342 0.6
      vertex -0.433013 0.25 0.6
    endloop
  endfacet
  facet normal 0 0 1
    outer loop
      vertex 0 0 0.6
      vertex -0.433013 0.25 0.6
      vertex -0.46194 0.191342 0.6
    endloop
  endfacet
  facet normal 0 0 -1
    outer loop
      vertex 0 0 -0.6
      vertex -0.46194 0.191342 -0.6
      vertex -0.433013 0.25 -0.6
    endloop
  endfacet
  facet normal -0.94693 0.321439 0
    outer loop
      vertex -0.46194 0.191342 -0.6
      vertex -0.482963 0.12941 -0.6
      vertex -0.482963 0.12941 0.6
    endloop
  endfacet
  facet normal -0.94693 0.321439 0
    outer loop
      vertex -0.46194 0.191342 -0.6
      vertex -0.482963 0.12941 0.6
      vertex -0.46194 0.191342 0.6
    endloop
  endfacet
  facet normal 0 0 1
    outer loop
      vertex 0 0 0.6
      vertex -0.46194 0.191342 0.6
      vertex -0.482963 0.12941 0.6
    endloop
  endfacet
  facet normal 0 0 -1
    outer loop
      vertex 0 0 -0.6
      vertex -0.482963 0.12941 -0.6
      vertex -0.46194 0.191342 -0.6
    endloop
  endfacet
  facet normal -0.980785 0.19509 0
    outer loop
      vertex -0.482963 0.12941 -0.6
      vertex -0.495722 0.0652631 -0.6
      vertex -0.495722 0.0652631 0.6
    endloop
  endfacet
  facet normal -0.980785 0.19509 0
    outer loop
      vertex -0.482963 0.12941 -0.6
      vertex -0.495722 0.0652631 0.6
      vertex -0.482963 0.12941 0.6
    endloop
  endfacet
  facet normal 0 0 1
    outer loop
      vertex 0 0 0.6
      vertex -0.482963 0.12941 0.6
      vertex -0.495722 0.0652631 0.6
    endloop
  endfacet
  facet normal 0 0 -1
    outer loop
      vertex 0 0 -0.6
      vertex -0.495722 0.0652631 -0.6
      vertex -0.482963 0.12941 -0.6
    endloop
  endfacet
  facet normal -0.997859 0.0654031 0
    outer loop
      vertex -0.495722 0.0652631 -0.6
      vertex -0.5 6.12323e-17 -0.6
      vertex -0.5 6.12323e-17 0.6
    endloop
  endfacet
  facet normal -0.997859 0.0654031 0
    outer loop
      vertex -0.495722 0.0652631 -0.6
      vertex -0.5 6.12323e-17 0.6
      vertex -0.495722 0.0652631 0.6
    endloop
  endfacet
  facet normal 0 0 1
    outer loop
      vertex 0 0 0.6
      vertex -0.495722 0.0652631 0.6
      vertex -0.5 6.12323e-17 0.6
    endloop
  endfacet
  facet normal 0 0 -1
    outer loop
      vertex 0 0 -0.6
      vertex -0.5 6.12323e-17 -0.6
      vertex -0.495722 0.0652631 -0.6
    endloop
  endfacet
  facet normal -0.997859 -0.0654031 0
    outer loop
      vertex -0.5 6.12323e-17 -0.6
      vertex -0.495722 -0.0652631 -0.6
      vertex -0.495722 -0.0652631 0.6
    endloop
  endfacet
  facet normal -0.997859 -0.0654031 0
    outer loop
      vertex -0.5 6.12323e-17 -0.6
      vertex -0.495722 -0.0652631 0.6
      vertex -0.5 6.12323e-17 0.6
    endloop
  endfacet
  facet normal 0 0 1
    outer loop
      vertex 0 0 0.6
      vertex -0.5 6.12323e-17 0.6
      vertex -0.495722 -0.0652631 0.6
    endloop
  endfacet
  facet normal -0 0 -1
    outer loop
      vertex 0 0 -0.6
      vertex -0.495722 -0.0652631 -0.6
      vertex -0.5 6.12323e-17 -0.6
    endloop
  endfacet
  facet normal -0.980785 -0.19509 0
    outer loop
      vertex -0.495722 -0.0652631 -0.6
      vertex -0.482963 -0.12941 -0.6
      vertex -0.482963 -0.12941 0.6
    endloop
  endfacet
  facet normal -0.980785 -0.19509 0
    outer loop
      vertex -0.495722 -0.0652631 -0.6
      vertex -0.482963 -0.12941 0.6
      vertex -0.495722 -0.0652631 0.6
    endloop
  endfacet
  facet normal 0 0 1
    outer loop
      vertex 0 0 0.6
      vertex -0.495722 -0.0652631 0.6
      vertex -0.482963 -0.12941 0.6
    endloop
  endfacet
  facet normal 0 0 -1
    outer loop
      vertex 0 0 -0.6
      vertex -0.482963 -0.12941 -0.6
      vertex -0.495722 -0.0652631 -0.6
    endloop
  endfacet
  facet normal -0.94693 -0.321439 0
    outer loop
      vertex -0.482963 -0.12941 -0.6
      vertex -0.46194 -0.191342 -0.6
      vertex -0.46194 -0.191342 0.6
    endloop
  endfacet
  facet normal -0.94693 -0.321439 0
    outer loop
      vertex -0.482963 -0.12941 -0.6
      vertex -0.46194 -0.191342 0.6
      vertex -0.482963 -0.12941 0.6
    endloop
  endfacet
  facet normal 0 0 1
    outer loop
      vertex 0 0 0.6
      vertex -0.482963 -0.12941 0.6
      vertex -0.46194 -0.191342 0.6
    endloop
  endfacet
  facet normal 0 0 -1
    outer loop
      vertex 0 0 -0.6
      vertex -0.46194 -0.191342 -0.6
      vertex -0.482963 -0.12941 -0.6
    endloop
  endfacet
  facet normal -0.896873 -0.442289 0
    outer loop
      vertex -0.46194 -0.191342 -0.6
      vertex -0.433013 -0.25 -0.6
      vertex -0.433013 -0.25 0.6
    endloop
  endfacet
  facet normal -0.896873 -0.442289 0
    outer loop
      vertex -0.46194 -0.191342 -0.6
      vertex -0.433013 -0.25 0.6
      vertex -0.46194 -0.191342 0.6
    endloop
  endfacet
  facet normal 0 0 1
    outer loop
      vertex 0 0 0.6
      vertex -0.46194 -0.191342 0.6
      vertex -0.433013 -0.25 0.6
    endloop
  endfacet
  facet normal 0 0 -1
    outer loop
      vertex 0 0 -0.6
      vertex -0.433013 -0.25 -0.6
      vertex -0.46194 -0.191342 -0.6
    endloop
  endfacet
  facet normal -0.83147 -0.55557 0
    outer loop
      vertex -0.433013 -0.25 -0.6
      vertex -0.396677 -0.304381 -0.6
      vertex -0.396677 -0.304381 0.6
    endloop
  endfacet
  facet normal -0.83147 -0.55557 0
    outer loop
      vertex -0.433013 -0.25 -0.6
      vertex -0.396677 -0.304381 0.6
      vertex -0.433013 -0.25 0.6
    endloop
  endfacet
  facet normal 0 0 1
    outer loop
      vertex 0 0 0.6
      vertex -0.433013 -0.25 0.6
      vertex -0.396677 -0.304381 0.6
    endloop
  endfacet
  facet normal 0 0 -1
    outer loop
      vertex 0 0 -0.6
      vertex -0.396677 -0.304381 -0.6
      vertex -0.433013 -0.25 -0.6
    endloop
  endfacet
  facet normal -0.75184 -0.659346 0
    outer loop
      vertex -0.396677 -0.304381 -0.6
      vertex -0.353553 -0.353553 -0.6
      vertex -0.353553 -0.353553 0.6
    endloop
  endfacet
  facet normal -0.75184 -0.659346 0
    outer loop
      vertex -0.396677 -0.304381 -0.6
      vertex -0.353553 -0.353553 0.6
      vertex -0.396677 -0.304381 0.6
    endloop
  endfacet
  facet normal 0 0 1
    outer loop
      vertex 0 0 0.6
      vertex -0.396677 -0.304381 0.6
      vertex -0.353553 -0.353553 0.6
    endloop
  endfacet
  facet normal 0 0 -1
    outer loop
      vertex 0 0 -0.6
      vertex -0.353553 -0.353553 -0.6
      vertex -0.396677 -0.304381 -0.6
    endloop
  endfacet
  facet normal -0.659346 -0.75184 0
    outer loop
      vertex -0.353553 -0.353553 -0.6
      vertex -0.304381 -0.396677 -0.6
      vertex -0.304381 -0.396677 0.6
    endloop
  endfacet
  facet normal -0.659346 -0.75184 0
    outer loop
      vertex -0.353553 -0.353553 -0.6
      vertex -0.304381 -0.396677 0.6
      vertex -0.353553 -0.353553 0.6
    endloop
  endfacet
  facet normal 0 0 1
    outer loop
      vertex 0 0 0.6
      vertex -0.353553 -0.353553 0.6
      vertex -0.304381 -0.396677 0.6
    endloop
  endfacet
  facet normal 0 0 -1
    outer loop
      vertex 0 0 -0.6
      vertex -0.304381 -0.396677 -0.6
      vertex -0.353553 -0.353553 -0.6
    endloop
  endfacet
  facet normal -0.55557 -0.83147 0
    outer loop
      vertex -0.304381 -0.396677 -0.6
      vertex -0.25 -0.433013 -0.6
      vertex -0.25 -0.433013 0.6
    endloop
  endfacet
  facet normal -0.55557 -0.83147 0
    outer loop
      vertex -0.304381 -0.396677 -0.6
      vertex -0.25 -0.433013 0.6
      vertex -0.304381 -0.396677 0.6
    endloop
  endfacet
  facet normal 0 0 1
    outer loop
      vertex 0 0 0.6
      vertex -0.304381 -0.396677 0.6
      vertex -0.25 -0.433013 0.6
    endloop
  endfacet
  facet normal 0 0 -1
    outer loop
      vertex 0 0 -0.6
      vertex -0.25 -0.433013 -0.6
      vertex -0.304381 -0.396677 -0.6
    endloop
  endfacet
  facet normal -0.442289 -0.896873 0
    outer loop
      vertex -0.25 -0.433013 -0.6
      vertex -0.191342 -0.46194 -0.6
      vertex -0.191342 -0.46194 0.6
    endloop
  endfacet
  facet normal -0.442289 -0.896873 0
    outer loop
      vertex -0.25 -0.433013 -0.6
      vertex -0.191342 -0.46194 0.6
      vertex -0.25 -0.433013 0.6
    endloop
  endfacet
  facet normal 0 0 1
    outer loop
      vertex 0 0 0.6
      vertex -0.25 -0.433013 0.6
      vertex -0.191342 -0.46194 0.6
    endloop
  endfacet
  facet normal 0 0 -1
    outer loop
      vertex 0 0 -0.6
      vertex -0.191342 -0.46194 -0.6
      vertex -0.25 -0.433013 -0.6
    endloop
  endfacet
  facet normal -0.321439 -0.94693 0
    outer loop
      vertex -0.191342 -0.46194 -0.6
      vertex -0.12941 -0.482963 -0.6
      vertex -0.12941 -0.482963 0.6
    endloop
  endfacet
  facet normal -0.321439 -0.94693 0
    outer loop
      vertex -0.191342 -0.46194 -0.6
      vertex -0.12941 -0.482963 0.6
      vertex -0.191342 -0.46194 0.6
    endloop
  endfacet
  facet normal 0 0 1
    outer loop
      vertex 0 0 0.6
      vertex -0.191342 -0.46194 0.6
      vertex -0.12941 -0.482963 0.6
    endloop
  endfacet
  facet normal 0 0 -1
    outer loop
      vertex 0 0 -0.6
      vertex -0.12941 -0.482963 -0.6
      vertex -0.191342 -0.46194 -0.6
    endloop
  endfacet
  facet normal -0.19509 -0.980785 0
    outer loop
      vertex -0.12941 -0.482963 -0.6
      vertex -0.0652631 -0.495722 -0.6
      vertex -0.0652631 -0.495722 0.6
    endloop
  endfacet
  facet normal -0.19509 -0.980785 0
    outer loop
      vertex -0.12941 -0.482963 -0.6
      vertex -0.0652631 -0.495722 0.6
      vertex -0.12941 -0.482963 0.6
    endloop
  endfacet
  facet normal 0 0 1
    outer loop
      vertex 0 0 0.6
      vertex -0.12941 -0.482963 0.6
      vertex -0.0652631 -0.495722 0.6
    endloop
  endfacet
  facet normal 0 0 -1
    outer loop
      vertex 0 0 -0.6
      vertex -0.0652631 -0.495722 -0.6
      vertex -0.12941 -0.482963 -0.6
    endloop
  endfacet
  facet normal -0.0654031 -0.997859 0
    outer loop
      vertex -0.0652631 -0.495722 -0.6
      vertex -9.18485e-17 -0.5 -0.6
      vertex -9.18485e-17 -0.5 0.6
    endloop
  endfacet
  facet normal -0.0654031 -0.997859 0
    outer loop
      vertex -0.0652631 -0.495722 -0.6
      vertex -9.18485e-17 -0.5 0.6
      vertex -0.0652631 -0.495722 0.6
    endloop
  endfacet
  facet normal 0 0 1
    outer loop
      vertex 0 0 0.6
      vertex -0.0652631 -0.495722 0.6
      vertex -9.18485e-17 -0.5 0.6
    endloop
  endfacet
  facet normal 0 0 -1
    outer loop
      vertex 0 0 -0.6
      vertex -9.18485e-17 -0.5 -0.6
      vertex -0.0652631 -0.495722 -0.6
    endloop
  endfacet
  facet normal 0.0654031 -0.997859 0
    outer loop
      vertex -9.18485e-17 -0.5 -0.6
      vertex 0.0652631 -0.495722 -0.6
      vertex 0.0652631 -0.495722 0.6
    endloop
  endfacet
  facet normal 0.0654031 -0.997859 0
    outer loop
      vertex -9.18485e-17 -0.5 -0.6
      vertex 0.0652631 -0.495722 0.6
      vertex -9.18485e-17 -0.5 0.6
    endloop
  endfacet
  facet normal 0 0 1
    outer loop
      vertex 0 0 0.6
      vertex -9.18485e-17 -0.5 0.6
      vertex 0.0652631 -0.495722 0.6
    endloop
  endfacet
  facet normal 0 -0 -1
    outer loop
      vertex 0 0 -0.6
      vertex 0.0652631 -0.495722 -0.6
      vertex -9.18485e-17 -0.5 -0.6
    endloop
  endfacet
  facet normal 0.19509 -0.980785 0
    outer loop
      vertex 0.0652631 -0.495722 -0.6
      vertex 0.12941 -0.482963 -0.6
      vertex 0.12941 -0.482963 0.6
    endloop
  endfacet
  facet normal 0.19509 -0.980785 0
    outer loop
      vertex 0.0652631 -0.495722 -0.6
      vertex 0.12941 -0.482963 0.6
      vertex 0.0652631 -0.495722 0.6
    endloop
  endfacet
  facet normal 0 0 1
    outer loop
      vertex 0 0 0.6
      vertex 0.0652631 -0.495722 0.6
      vertex 0.12941 -0.482963 0.6
    endloop
  endfacet
  facet normal 0 0 -1
    outer loop
      vertex 0 0 -0.6
      vertex 0.12941 -0.482963 -0.6
      vertex 0.0652631 -0.495722 -0.6
    endloop
  endfacet
  facet normal 0.321439 -0.94693 0
    outer loop
      vertex 0.12941 -0.482963 -0.6
      vertex 0.191342 -0.46194 -0.6
      vertex 0.191342 -0.46194 0.6
    endloop
  endfacet
  facet normal 0.321439 -0.94693 0
    outer loop
      vertex 0.12941 -0.482963 -0.6
      vertex 0.191342 -0.46194 0.6
      vertex 0.12941 -0.482963 0.6
    endloop
  endfacet
  facet normal 0 0 1
    outer loop
      vertex 0 0 0.6
      vertex 0.12941 -0.482963 0.6
      vertex 0.191342 -0.46194 0.6
    endloop
  endfacet
  facet normal 0 0 -1
    outer loop
      vertex 0 0 -0.6
      vertex 0.191342 -0.46194 -0.6
      vertex 0.12941 -0.482963 -0.6
    endloop
  endfacet
  facet normal 0.442289 -0.896873 0
    outer loop
      vertex 0.191342 -0.46194 -0.6
      vertex 0.25 -0.433013 -0.6
      vertex 0.25 -0.433013 0.6
    endloop
  endfacet
  facet normal 0.442289 -0.896873 0
    outer loop
      vertex 0.191342 -0.46194 -0.6
      vertex 0.25 -0.433013 0.6
      vertex 0.191342 -0.46194 0.6
    endloop
  endfacet
  facet normal 0 0 1
    outer loop
      vertex 0 0 0.6
      vertex 0.191342 -0.46194 0.6
      vertex 0.25 -0.433013 0.6
    endloop
  endfacet
  facet normal 0 0 -1
    outer loop
      vertex 0 0 -0.6
      vertex 0.25 -0.433013 -0.6
      vertex 0.191342 -0.46194 -0.6
    endloop
  endfacet
  facet normal 0.55557 -0.83147 0
    outer loop
      vertex 0.25 -0.433013 -0.6
      vertex 0.304381 -0.396677 -0.6
      vertex 0.304381 -0.396677 0.6
    endloop
  endfacet
  facet normal 0.55557 -0.83147 0
    outer loop
      vertex 0.25 -0.433013 -0.6
      vertex 0.304381 -0.396677 0.6
      vertex 0.25 -0.433013 0.6
    endloop
  endfacet
  facet normal 0 0 1
    outer loop
      vertex 0 0 0.6
      vertex 0.25 -0.433013 0.6
      vertex 0.304381 -0.396677 0.6
    endloop
  endfacet
  facet normal 0 0 -1
    outer loop
      vertex 0 0 -0.6
      vertex 0.304381 -0.396677 -0.6
      vertex 0.25 -0.433013 -0.6
    endloop
  endfacet
  facet normal 0.659346 -0.75184 0
    outer loop
      vertex 0.304381 -0.396677 -0.6
      vertex 0.353553 -0.353553 -0.6
      vertex 0.353553 -0.353553 0.6
    endloop
  endfacet
  facet normal 0.659346 -0.75184 0
    outer loop
      vertex 0.304381 -0.396677 -0.6
      vertex 0.353553 -0.353553 0.6
      vertex 0.304381 -0.396677 0.6
    endloop
  endfacet
  facet normal 0 0 1
    outer loop
      vertex 0 0 0.6
      vertex 0.304381 -0.396677 0.6
      vertex 0.353553 -0.353553 0.6
    endloop
  endfacet
  facet normal 0 0 -1
    outer loop
      vertex 0 0 -0.6
      vertex 0.353553 -0.353553 -0.6
      vertex 0.304381 -0.396677 -0.6
    endloop
  endfacet
  facet normal 0.75184 -0.659346 0
    outer loop
      vertex 0.353553 -0.353553 -0.6
      vertex 0.396677 -0.304381 -0.6
      vertex 0.396677 -0.304381 0.6
    endloop
  endfacet
  facet normal 0.75184 -0.659346 0
    outer loop
      vertex 0.353553 -0.353553 -0.6
      vertex 0.396677 -0.304381 0.6
      vertex 0.353553 -0.353553 0.6
    endloop
  endfacet
  facet normal 0 0 1
    outer loop
      vertex 0 0 0.6
      vertex 0.353553 -0.353553 0.6
      vertex 0.396677 -0.304381 0.6
    endloop
  endfacet
  facet normal 0 0 -1
    outer loop
      vertex 0 0 -0.6
      vertex 0.396677 -0.304381 -0.6
      vertex 0.353553 -0.353553 -0.6
    endloop
  endfacet
  facet normal 0.83147 -0.55557 0
    outer loop
      vertex 0.396677 -0.304381 -0.6
      vertex 0.433013 -0.25 -0.6
      vertex 0.433013 -0.25 0.6
    endloop
  endfacet
  facet normal 0.83147 -0.55557 0
    outer loop
      vertex 0.396677 -0.304381 -0.6
      vertex 0.433013 -0.25 0.6
      vertex 0.396677 -0.304381 0.6
    endloop
  endfacet
  facet normal 0 0 1
    outer loop
      vertex 0 0 0.6
      vertex 0.396677 -0.304381 0.6
      vertex 0.433013 -0.25 0.6
    endloop
  endfacet
  facet normal 0 0 -1
    outer loop
      vertex 0 0 -0.6
      vertex 0.433013 -0.25 -0.6
      vertex 0.396677 -0.304381 -0.6
    endloop
  endfacet
  facet normal 0.896873 -0.442289 0
    outer loop
      vertex 0.433013 -0.25 -0.6
      vertex 0.46194 -0.191342 -0.6
      vertex 0.46194 -0.191342 0.6
    endloop
  endfacet
  facet normal 0.896873 -0.442289 0
    outer loop
      vertex 0.433013 -0.25 -0.6
      vertex 0.46194 -0.191342 0.6
      vertex 0.433013 -0.25 0.6
    endloop
  endfacet
  facet normal 0 0 1
    outer loop
      vertex 0 0 0.6
      vertex 0.433013 -0.25 0.6
      vertex 0.46194 -0.191342 0.6
    endloop
  endfacet
  facet normal 0 0 -1
    outer loop
      vertex 0 0 -0.6
      vertex 0.46194 -0.191342 -0.6
      vertex 0.433013 -0.25 -0.6
    endloop
  endfacet
  facet normal 0.94693 -0.321439 0
    outer loop
      vertex 0.46194 -0.191342 -0.6
      vertex 0.482963 -0.12941 -0.6
      vertex 0.482963 -0.12941 0.6
    endloop
  endfacet
  facet normal 0.94693 -0.321439 0
    outer loop
      vertex 0.46194 -0.191342 -0.6
      vertex 0.482963 -0.12941 0.6
      vertex 0.46194 -0.191342 0.6
    endloop
  endfacet
  facet normal 0 0 1
    outer loop
      vertex 0 0 0.6
      vertex 0.46194 -0.191342 0.6
      vertex 0.482963 -0.12941 0.6
    endloop
  endfacet
  facet normal 0 0 -1
    outer loop
      vertex 0 0 -0.6
      vertex 0.482963 -0.12941 -0.6
      vertex 0.46194 -0.191342 -0.6
    endloop
  endfacet
  facet normal 0.980785 -0.19509 0
    outer loop
      vertex 0.482963 -0.12941 -0.6
      vertex 0.495722 -0.0652631 -0.6
      vertex 0.495722 -0.0652631 0.6
    endloop
  endfacet
  facet normal 0.980785 -0.19509 0
    outer loop
      vertex 0.482963 -0.12941 -0.6
      vertex 0.495722 -0.0652631 0.6
      vertex 0.482963 -0.12941 0.6
    endloop
  endfacet
  facet normal 0 0 1
    outer loop
      vertex 0 0 0.6
      vertex 0.482963 -0.12941 0.6
      vertex 0.495722 -0.0652631 0.6
    endloop
  endfacet
  facet normal 0 0 -1
    outer loop
      vertex 0 0 -0.6
      vertex 0.495722 -0.0652631 -0.6
      vertex 0.482963 -0.12941 -0.6
    endloop
  endfacet
  facet normal 0.997859 -0.0654031 0
    outer loop
      vertex 0.495722 -0.0652631 -0.6
      vertex 0.5 0 -0.6
      vertex 0.5 0 0.6
    endloop
  endfacet
  facet normal 0.997859 -0.0654031 0
    outer loop
      vertex 0.495722 -0.0652631 -0.6
      vertex 0.5 0 0.6
      vertex 0.495722 -0.0652631 0.6
    endloop
  endfacet
  facet normal -0 0 1
    outer loop
      vertex 0 0 0.6
      vertex 0.495722 -0.0652631 0.6
      vertex 0.5 0 0.6
    endloop
  endfacet
  facet normal 0 0 -1
    outer loop
      vertex 0 0 -0.6
      vertex 0.5 0 -0.6
      vertex 0.495722 -0.0652631 -0.6
    endloop
  endfacet
endsolid cylinder
